<?xml version="1.0" standalone="no"?>
<!DOCTYPE svg PUBLIC "-//W3C//DTD SVG 20010904//EN"
 "http://www.w3.org/TR/2001/REC-SVG-20010904/DTD/svg10.dtd">
<svg version="1.0" xmlns="http://www.w3.org/2000/svg"
 width="520.000000pt" height="520.000000pt" viewBox="0 0 520.000000 520.000000"
 preserveAspectRatio="xMidYMid meet">
<metadata>
Created by potrace 1.11, written by Peter Selinger 2001-2013
</metadata>
<g transform="translate(0.000000,520.000000) scale(0.100000,-0.100000)"
fill="#000000" stroke="none">
<path d="M233 4092 l-23 -3 0 -1385 0 -1384 273 0 274 0 1 572 c0 315 1 580 1
588 1 13 26 15 173 13 154 -2 223 -6 223 -12 0 -2 9 -4 20 -6 64 -12 134 -82
163 -162 28 -75 32 -109 37 -283 17 -544 20 -574 57 -662 l20 -48 299 0 c212
0 299 3 299 11 0 6 -11 20 -25 31 -71 55 -85 134 -100 558 -12 329 -28 434
-82 547 -48 103 -161 183 -292 208 -13 2 -32 7 -43 11 -19 6 -19 7 -5 16 10 5
22 6 27 3 6 -3 10 -1 10 5 0 6 4 9 9 5 5 -3 12 -1 16 5 4 6 11 8 16 5 5 -4 23
3 39 15 17 12 30 18 30 15 0 -8 55 31 90 62 14 13 28 23 32 23 5 0 8 5 8 10 0
6 10 22 23 36 45 48 99 173 116 270 6 32 13 70 16 84 6 29 6 233 1 270 -2 14
-7 45 -11 69 -16 104 -79 237 -152 317 -33 37 -152 119 -185 129 -13 3 -32 10
-43 15 -52 22 -68 26 -125 33 -14 1 -29 5 -35 8 -5 3 -37 7 -70 9 -86 4 -1056
6 -1082 2z m627 -413 c8 0 27 2 43 4 15 2 27 1 27 -4 0 -5 6 -6 13 -4 21 8 77
13 77 6 0 -3 11 -6 25 -6 14 0 25 5 25 10 0 6 5 3 10 -5 5 -8 10 -12 10 -9 0
4 17 3 38 -2 20 -5 48 -12 62 -15 14 -3 27 -9 28 -15 2 -5 11 -9 19 -9 8 0 37
-22 63 -50 35 -37 53 -67 69 -117 36 -113 32 -267 -10 -378 -20 -52 -76 -125
-97 -125 -7 0 -12 -3 -12 -7 0 -10 -75 -46 -95 -46 -8 0 -15 -3 -15 -7 0 -7
-13 -9 -126 -13 -49 -2 -95 -7 -102 -11 -7 -4 -12 -3 -12 3 0 7 -8 7 -22 2
-13 -5 -31 -5 -42 -2 -10 4 -31 6 -47 5 -21 -1 -29 3 -30 14 0 10 -1 189 -2
399 -2 419 -6 393 58 386 17 -2 37 -4 45 -4z"/>
<path d="M2165 4090 c-2 -3 1 -27 6 -53 5 -26 11 -69 15 -95 3 -26 8 -50 10
-53 1 -3 12 -59 23 -125 12 -65 23 -131 26 -146 3 -16 7 -38 9 -51 21 -121 59
-331 66 -367 5 -25 12 -65 15 -90 4 -25 10 -63 15 -85 5 -22 18 -94 29 -160
12 -66 23 -133 26 -150 3 -16 8 -41 10 -55 3 -14 36 -200 74 -415 38 -214 72
-403 75 -420 10 -51 25 -138 31 -175 8 -48 14 -80 20 -110 3 -14 10 -52 16
-85 5 -33 12 -67 14 -75 2 -8 4 -25 4 -37 l1 -23 310 0 310 0 2 28 c0 15 2 32
3 37 1 6 5 30 9 55 4 25 9 56 11 70 2 14 7 45 11 70 4 25 8 52 9 60 4 32 18
126 21 145 3 11 7 38 9 60 3 22 10 65 15 95 5 30 12 73 15 95 2 22 6 49 9 60
2 11 7 45 11 75 4 30 9 64 11 75 2 11 6 36 9 55 5 42 15 105 21 140 2 14 6 45
10 70 3 25 7 52 9 60 2 8 7 38 10 65 7 57 12 87 25 165 12 73 19 122 25 178 3
26 8 54 10 62 2 8 7 38 11 65 3 28 8 57 9 67 2 9 7 38 11 65 17 122 20 121 39
-17 6 -44 14 -92 35 -235 12 -77 23 -151 25 -165 7 -51 76 -507 85 -560 5 -30
12 -73 15 -95 3 -22 12 -83 20 -135 8 -52 17 -113 20 -135 3 -22 10 -69 15
-105 6 -36 12 -81 15 -100 3 -19 10 -62 15 -95 5 -33 12 -78 15 -100 6 -44 12
-86 20 -140 l6 -35 304 0 c167 0 306 3 308 8 3 4 8 23 11 42 3 19 17 100 31
180 14 80 28 156 30 170 2 14 6 39 9 55 7 36 95 531 100 560 14 76 46 256 51
285 3 19 21 121 40 225 37 207 92 515 99 555 2 14 9 52 15 85 6 33 13 74 15
90 3 17 10 55 16 85 6 30 13 69 16 85 2 17 17 101 32 187 28 156 28 156 8 160
-32 5 -495 2 -500 -3 -3 -2 -8 -27 -12 -54 -3 -28 -8 -59 -10 -70 -2 -11 -6
-40 -10 -65 -3 -25 -9 -70 -14 -100 -5 -30 -11 -75 -14 -100 -4 -25 -8 -54
-10 -65 -2 -11 -7 -42 -10 -70 -4 -27 -11 -75 -16 -105 -5 -30 -12 -77 -15
-105 -3 -27 -8 -57 -10 -65 -2 -8 -6 -33 -9 -55 -2 -22 -14 -105 -26 -185 -11
-80 -23 -161 -25 -180 -3 -20 -8 -47 -10 -60 -3 -14 -8 -49 -11 -79 -3 -30 -7
-57 -9 -60 -1 -3 -6 -35 -10 -71 -4 -36 -8 -67 -10 -70 -2 -3 -6 -30 -10 -60
-3 -30 -8 -62 -10 -70 -2 -8 -7 -39 -10 -69 -4 -30 -8 -61 -10 -70 -1 -9 -8
-56 -15 -106 -7 -49 -17 -94 -21 -99 -6 -6 -9 -4 -9 5 0 14 -9 79 -35 244 -3
22 -15 94 -25 160 -29 177 -54 338 -65 415 -12 82 -16 104 -25 160 -5 30 -11
71 -14 90 -4 30 -46 297 -62 400 -3 19 -9 60 -14 90 -5 30 -20 127 -33 215
-14 88 -29 180 -32 205 -4 25 -10 47 -15 50 -10 6 -508 5 -514 -1 -4 -4 -30
-148 -39 -219 -5 -35 -38 -249 -57 -365 -6 -33 -12 -73 -14 -90 -3 -16 -7 -50
-11 -75 -4 -25 -9 -58 -11 -75 -2 -16 -6 -41 -9 -55 -3 -14 -7 -38 -9 -55 -3
-16 -10 -61 -16 -100 -6 -38 -13 -81 -15 -95 -2 -14 -6 -41 -9 -60 -3 -19 -8
-51 -10 -70 -3 -19 -14 -91 -25 -160 -11 -69 -22 -141 -25 -160 -3 -19 -7 -44
-10 -55 -2 -11 -7 -42 -10 -70 -6 -46 -13 -88 -22 -140 -2 -11 -9 -59 -15
-107 -7 -49 -15 -88 -19 -88 -4 0 -11 25 -15 56 -4 31 -8 66 -10 78 -4 21 -41
278 -51 346 -3 19 -7 46 -9 60 -3 14 -7 43 -10 65 -3 22 -7 54 -10 70 -3 17
-7 47 -10 68 -7 48 -12 84 -35 247 -11 74 -23 153 -26 175 -3 22 -7 47 -9 55
-2 8 -6 38 -10 65 -3 28 -7 61 -10 75 -9 53 -18 115 -29 200 -4 30 -11 78 -16
105 -5 28 -11 70 -15 95 -3 25 -7 59 -10 75 -5 29 -7 47 -21 150 -3 28 -8 52
-10 54 -5 6 -515 7 -519 1z"/>
</g>
</svg>
